{
	"asset":{
		"generator":"Khronos glTF Blender I/O v4.0.43",
		"version":"2.0"
	},
	"extensionsUsed":[
		"KHR_materials_specular",
		"KHR_materials_ior"
	],
	"scene":0,
	"scenes":[
		{
			"name":"Scene",
			"nodes":[
				0
			]
		}
	],
	"nodes":[
		{
			"mesh":0,
			"name":"Sword"
		}
	],
	"materials":[
		{
			"doubleSided":true,
			"extensions":{
				"KHR_materials_specular":{
					"specularFactor":0.20000000298023224
				},
				"KHR_materials_ior":{
					"ior":1.4500000476837158
				}
			},
			"name":"Hilt",
			"pbrMetallicRoughness":{
				"baseColorFactor":[
					0.02500000037252903,
					0.02500000037252903,
					0.02500000037252903,
					1
				],
				"metallicFactor":0,
				"roughnessFactor":0.5
			}
		},
		{
			"doubleSided":true,
			"name":"Flat",
			"pbrMetallicRoughness":{
				"baseColorFactor":[
					0.23301535844802856,
					0.23301535844802856,
					0.23301535844802856,
					1
				],
				"metallicFactor":0.25,
				"roughnessFactor":0.10000000149011612
			}
		},
		{
			"doubleSided":true,
			"name":"Edge",
			"pbrMetallicRoughness":{
				"baseColorFactor":[
					0.800000011920929,
					0.800000011920929,
					0.800000011920929,
					1
				],
				"metallicFactor":0.5,
				"roughnessFactor":0
			}
		}
	],
	"meshes":[
		{
			"name":"Circle",
			"primitives":[
				{
					"attributes":{
						"POSITION":0,
						"NORMAL":1,
						"TEXCOORD_0":2
					},
					"indices":3,
					"material":0
				},
				{
					"attributes":{
						"POSITION":4,
						"NORMAL":5,
						"TEXCOORD_0":6
					},
					"indices":7,
					"material":1
				},
				{
					"attributes":{
						"POSITION":8,
						"NORMAL":9,
						"TEXCOORD_0":10
					},
					"indices":11,
					"material":2
				}
			]
		}
	],
	"accessors":[
		{
			"bufferView":0,
			"componentType":5126,
			"count":77,
			"max":[
				3.6956729888916016,
				0.12926730513572693,
				1.0701438188552856
			],
			"min":[
				0,
				0,
				0
			],
			"type":"VEC3"
		},
		{
			"bufferView":1,
			"componentType":5126,
			"count":77,
			"type":"VEC3"
		},
		{
			"bufferView":2,
			"componentType":5126,
			"count":77,
			"type":"VEC2"
		},
		{
			"bufferView":3,
			"componentType":5123,
			"count":231,
			"type":"SCALAR"
		},
		{
			"bufferView":4,
			"componentType":5126,
			"count":13,
			"max":[
				0.09351129829883575,
				0.0873061791062355,
				0.3088134229183197
			],
			"min":[
				-10.837529182434082,
				0.0873061791062355,
				0
			],
			"type":"VEC3"
		},
		{
			"bufferView":5,
			"componentType":5126,
			"count":13,
			"type":"VEC3"
		},
		{
			"bufferView":6,
			"componentType":5126,
			"count":13,
			"type":"VEC2"
		},
		{
			"bufferView":7,
			"componentType":5123,
			"count":33,
			"type":"SCALAR"
		},
		{
			"bufferView":8,
			"componentType":5126,
			"count":15,
			"max":[
				0,
				0.0873061791062355,
				0.48542526364326477
			],
			"min":[
				-12.215517044067383,
				0,
				0
			],
			"type":"VEC3"
		},
		{
			"bufferView":9,
			"componentType":5126,
			"count":15,
			"type":"VEC3"
		},
		{
			"bufferView":10,
			"componentType":5126,
			"count":15,
			"type":"VEC2"
		},
		{
			"bufferView":11,
			"componentType":5123,
			"count":39,
			"type":"SCALAR"
		}
	],
	"bufferViews":[
		{
			"buffer":0,
			"byteLength":924,
			"byteOffset":0,
			"target":34962
		},
		{
			"buffer":0,
			"byteLength":924,
			"byteOffset":924,
			"target":34962
		},
		{
			"buffer":0,
			"byteLength":616,
			"byteOffset":1848,
			"target":34962
		},
		{
			"buffer":0,
			"byteLength":462,
			"byteOffset":2464,
			"target":34963
		},
		{
			"buffer":0,
			"byteLength":156,
			"byteOffset":2928,
			"target":34962
		},
		{
			"buffer":0,
			"byteLength":156,
			"byteOffset":3084,
			"target":34962
		},
		{
			"buffer":0,
			"byteLength":104,
			"byteOffset":3240,
			"target":34962
		},
		{
			"buffer":0,
			"byteLength":66,
			"byteOffset":3344,
			"target":34963
		},
		{
			"buffer":0,
			"byteLength":180,
			"byteOffset":3412,
			"target":34962
		},
		{
			"buffer":0,
			"byteLength":180,
			"byteOffset":3592,
			"target":34962
		},
		{
			"buffer":0,
			"byteLength":120,
			"byteOffset":3772,
			"target":34962
		},
		{
			"buffer":0,
			"byteLength":78,
			"byteOffset":3892,
			"target":34963
		}
	],
	"buffers":[
		{
			"byteLength":3972,
			"uri":"Broadsword.bin"
		}
	]
}
