{
	"asset":{
		"generator":"Khronos glTF Blender I/O v4.0.43",
		"version":"2.0"
	},
	"scene":0,
	"scenes":[
		{
			"name":"Scene",
			"nodes":[
				0
			]
		}
	],
	"nodes":[
		{
			"mesh":0,
			"name":"Euro Capital"
		}
	],
	"materials":[
		{
			"doubleSided":true,
			"name":"Stone",
			"pbrMetallicRoughness":{
				"baseColorFactor":[
					0.25,
					0.25,
					0.25,
					1
				],
				"metallicFactor":0,
				"roughnessFactor":0.5
			}
		},
		{
			"doubleSided":true,
			"name":"Roof",
			"pbrMetallicRoughness":{
				"baseColorFactor":[
					0.6000000238418579,
					0.08999998867511749,
					0.08999998867511749,
					1
				],
				"metallicFactor":0,
				"roughnessFactor":0.5
			}
		},
		{
			"doubleSided":true,
			"name":"Doorways",
			"pbrMetallicRoughness":{
				"baseColorFactor":[
					0.15000000596046448,
					0.15000000596046448,
					0.15000000596046448,
					1
				],
				"metallicFactor":0,
				"roughnessFactor":0.5
			}
		}
	],
	"meshes":[
		{
			"name":"Circle",
			"primitives":[
				{
					"attributes":{
						"POSITION":0,
						"NORMAL":1,
						"TEXCOORD_0":2
					},
					"indices":3,
					"material":0
				},
				{
					"attributes":{
						"POSITION":4,
						"NORMAL":5,
						"TEXCOORD_0":6
					},
					"indices":7,
					"material":1
				},
				{
					"attributes":{
						"POSITION":8,
						"NORMAL":9,
						"TEXCOORD_0":10
					},
					"indices":11,
					"material":2
				}
			]
		}
	],
	"accessors":[
		{
			"bufferView":0,
			"componentType":5126,
			"count":3181,
			"max":[
				1.6500000953674316,
				2.5,
				1.6871321201324463
			],
			"min":[
				-1.6500000953674316,
				0,
				-2.1851537227630615
			],
			"type":"VEC3"
		},
		{
			"bufferView":1,
			"componentType":5126,
			"count":3181,
			"type":"VEC3"
		},
		{
			"bufferView":2,
			"componentType":5126,
			"count":3181,
			"type":"VEC2"
		},
		{
			"bufferView":3,
			"componentType":5123,
			"count":5895,
			"type":"SCALAR"
		},
		{
			"bufferView":4,
			"componentType":5126,
			"count":264,
			"max":[
				1.5750000476837158,
				4.6875,
				1.6871321201324463
			],
			"min":[
				-1.5750000476837158,
				1.5,
				-2.1851537227630615
			],
			"type":"VEC3"
		},
		{
			"bufferView":5,
			"componentType":5126,
			"count":264,
			"type":"VEC3"
		},
		{
			"bufferView":6,
			"componentType":5126,
			"count":264,
			"type":"VEC2"
		},
		{
			"bufferView":7,
			"componentType":5123,
			"count":270,
			"type":"SCALAR"
		},
		{
			"bufferView":8,
			"componentType":5126,
			"count":146,
			"max":[
				0.19057339429855347,
				2.02734375,
				1.3621320724487305
			],
			"min":[
				-0.19057339429855347,
				0,
				-1.308789849281311
			],
			"type":"VEC3"
		},
		{
			"bufferView":9,
			"componentType":5126,
			"count":146,
			"type":"VEC3"
		},
		{
			"bufferView":10,
			"componentType":5126,
			"count":146,
			"type":"VEC2"
		},
		{
			"bufferView":11,
			"componentType":5123,
			"count":252,
			"type":"SCALAR"
		}
	],
	"bufferViews":[
		{
			"buffer":0,
			"byteLength":38172,
			"byteOffset":0,
			"target":34962
		},
		{
			"buffer":0,
			"byteLength":38172,
			"byteOffset":38172,
			"target":34962
		},
		{
			"buffer":0,
			"byteLength":25448,
			"byteOffset":76344,
			"target":34962
		},
		{
			"buffer":0,
			"byteLength":11790,
			"byteOffset":101792,
			"target":34963
		},
		{
			"buffer":0,
			"byteLength":3168,
			"byteOffset":113584,
			"target":34962
		},
		{
			"buffer":0,
			"byteLength":3168,
			"byteOffset":116752,
			"target":34962
		},
		{
			"buffer":0,
			"byteLength":2112,
			"byteOffset":119920,
			"target":34962
		},
		{
			"buffer":0,
			"byteLength":540,
			"byteOffset":122032,
			"target":34963
		},
		{
			"buffer":0,
			"byteLength":1752,
			"byteOffset":122572,
			"target":34962
		},
		{
			"buffer":0,
			"byteLength":1752,
			"byteOffset":124324,
			"target":34962
		},
		{
			"buffer":0,
			"byteLength":1168,
			"byteOffset":126076,
			"target":34962
		},
		{
			"buffer":0,
			"byteLength":504,
			"byteOffset":127244,
			"target":34963
		}
	],
	"buffers":[
		{
			"byteLength":127748,
			"uri":"Large%20Castle.bin"
		}
	]
}
