{
	"asset":{
		"generator":"Khronos glTF Blender I/O v4.0.43",
		"version":"2.0"
	},
	"scene":0,
	"scenes":[
		{
			"name":"Scene",
			"nodes":[
				0
			]
		}
	],
	"nodes":[
		{
			"mesh":0,
			"name":"Euro Barracks"
		}
	],
	"materials":[
		{
			"doubleSided":true,
			"name":"Stone",
			"pbrMetallicRoughness":{
				"baseColorFactor":[
					0.25,
					0.25,
					0.25,
					1
				],
				"metallicFactor":0,
				"roughnessFactor":0.8999999761581421
			}
		},
		{
			"doubleSided":true,
			"name":"Shield",
			"pbrMetallicRoughness":{
				"baseColorFactor":[
					0.800000011920929,
					0.800000011920929,
					0.800000011920929,
					1
				],
				"metallicFactor":0.75,
				"roughnessFactor":0.25
			}
		},
		{
			"doubleSided":true,
			"name":"Gate",
			"pbrMetallicRoughness":{
				"baseColorFactor":[
					0.16428516805171967,
					0.04928554221987724,
					0,
					1
				],
				"metallicFactor":0,
				"roughnessFactor":0.5
			}
		}
	],
	"meshes":[
		{
			"name":"Plane",
			"primitives":[
				{
					"attributes":{
						"POSITION":0,
						"NORMAL":1,
						"TEXCOORD_0":2
					},
					"indices":3,
					"material":0
				},
				{
					"attributes":{
						"POSITION":4,
						"NORMAL":5,
						"TEXCOORD_0":6
					},
					"indices":7,
					"material":1
				},
				{
					"attributes":{
						"POSITION":8,
						"NORMAL":9,
						"TEXCOORD_0":10
					},
					"indices":11,
					"material":2
				}
			]
		}
	],
	"accessors":[
		{
			"bufferView":0,
			"componentType":5126,
			"count":1608,
			"max":[
				2.66549015045166,
				2.424999952316284,
				2.2240846157073975
			],
			"min":[
				-2.66549015045166,
				-7.450580596923828e-07,
				-2.66549015045166
			],
			"type":"VEC3"
		},
		{
			"bufferView":1,
			"componentType":5126,
			"count":1608,
			"type":"VEC3"
		},
		{
			"bufferView":2,
			"componentType":5126,
			"count":1608,
			"type":"VEC2"
		},
		{
			"bufferView":3,
			"componentType":5123,
			"count":2778,
			"type":"SCALAR"
		},
		{
			"bufferView":4,
			"componentType":5126,
			"count":50,
			"max":[
				0.8999999761581421,
				1.3197866678237915,
				1.1469557285308838
			],
			"min":[
				-0.8999999761581421,
				0.8128811120986938,
				1.092552900314331
			],
			"type":"VEC3"
		},
		{
			"bufferView":5,
			"componentType":5126,
			"count":50,
			"type":"VEC3"
		},
		{
			"bufferView":6,
			"componentType":5126,
			"count":50,
			"type":"VEC2"
		},
		{
			"bufferView":7,
			"componentType":5123,
			"count":192,
			"type":"SCALAR"
		},
		{
			"bufferView":8,
			"componentType":5126,
			"count":350,
			"max":[
				2.0999999046325684,
				0.7959063053131104,
				1.141141653060913
			],
			"min":[
				-2.0999999046325684,
				0,
				0.5249999761581421
			],
			"type":"VEC3"
		},
		{
			"bufferView":9,
			"componentType":5126,
			"count":350,
			"type":"VEC3"
		},
		{
			"bufferView":10,
			"componentType":5126,
			"count":350,
			"type":"VEC2"
		},
		{
			"bufferView":11,
			"componentType":5123,
			"count":708,
			"type":"SCALAR"
		}
	],
	"bufferViews":[
		{
			"buffer":0,
			"byteLength":19296,
			"byteOffset":0,
			"target":34962
		},
		{
			"buffer":0,
			"byteLength":19296,
			"byteOffset":19296,
			"target":34962
		},
		{
			"buffer":0,
			"byteLength":12864,
			"byteOffset":38592,
			"target":34962
		},
		{
			"buffer":0,
			"byteLength":5556,
			"byteOffset":51456,
			"target":34963
		},
		{
			"buffer":0,
			"byteLength":600,
			"byteOffset":57012,
			"target":34962
		},
		{
			"buffer":0,
			"byteLength":600,
			"byteOffset":57612,
			"target":34962
		},
		{
			"buffer":0,
			"byteLength":400,
			"byteOffset":58212,
			"target":34962
		},
		{
			"buffer":0,
			"byteLength":384,
			"byteOffset":58612,
			"target":34963
		},
		{
			"buffer":0,
			"byteLength":4200,
			"byteOffset":58996,
			"target":34962
		},
		{
			"buffer":0,
			"byteLength":4200,
			"byteOffset":63196,
			"target":34962
		},
		{
			"buffer":0,
			"byteLength":2800,
			"byteOffset":67396,
			"target":34962
		},
		{
			"buffer":0,
			"byteLength":1416,
			"byteOffset":70196,
			"target":34963
		}
	],
	"buffers":[
		{
			"byteLength":71612,
			"uri":"Small%20Rampart.bin"
		}
	]
}
