{
	"asset":{
		"generator":"Khronos glTF Blender I/O v4.0.43",
		"version":"2.0"
	},
	"scene":0,
	"scenes":[
		{
			"name":"Scene",
			"nodes":[
				0
			]
		}
	],
	"nodes":[
		{
			"mesh":0,
			"name":"Tower"
		}
	],
	"materials":[
		{
			"doubleSided":true,
			"name":"Material",
			"pbrMetallicRoughness":{
				"baseColorFactor":[
					0.3499996066093445,
					0.030399860814213753,
					0.009999904781579971,
					1
				],
				"metallicFactor":0,
				"roughnessFactor":0.5
			}
		},
		{
			"doubleSided":true,
			"name":"Roof",
			"pbrMetallicRoughness":{
				"baseColorFactor":[
					0.05000000074505806,
					0.05000000074505806,
					0.05000000074505806,
					1
				],
				"metallicFactor":0,
				"roughnessFactor":0.25
			}
		},
		{
			"doubleSided":true,
			"name":"Doors",
			"pbrMetallicRoughness":{
				"baseColorFactor":[
					0.14999951422214508,
					0.08626990020275116,
					0.06021732836961746,
					1
				],
				"metallicFactor":0,
				"roughnessFactor":0.5
			}
		},
		{
			"doubleSided":true,
			"name":"Structure",
			"pbrMetallicRoughness":{
				"baseColorFactor":[
					0.02500000037252903,
					0.02500000037252903,
					0.02500000037252903,
					1
				],
				"metallicFactor":0,
				"roughnessFactor":0.5
			}
		},
		{
			"doubleSided":true,
			"name":"Stairs",
			"pbrMetallicRoughness":{
				"baseColorFactor":[
					0.30000001192092896,
					0.30000001192092896,
					0.30000001192092896,
					1
				],
				"metallicFactor":0,
				"roughnessFactor":0.5
			}
		}
	],
	"meshes":[
		{
			"name":"Circle",
			"primitives":[
				{
					"attributes":{
						"POSITION":0,
						"NORMAL":1,
						"TEXCOORD_0":2
					},
					"indices":3,
					"material":0
				},
				{
					"attributes":{
						"POSITION":4,
						"NORMAL":5,
						"TEXCOORD_0":6
					},
					"indices":7,
					"material":1
				},
				{
					"attributes":{
						"POSITION":8,
						"NORMAL":9,
						"TEXCOORD_0":10
					},
					"indices":11,
					"material":2
				},
				{
					"attributes":{
						"POSITION":12,
						"NORMAL":13,
						"TEXCOORD_0":14
					},
					"indices":15,
					"material":3
				},
				{
					"attributes":{
						"POSITION":16,
						"NORMAL":17,
						"TEXCOORD_0":18
					},
					"indices":19,
					"material":4
				}
			]
		}
	],
	"accessors":[
		{
			"bufferView":0,
			"componentType":5126,
			"count":120,
			"max":[
				0.875,
				2,
				0.8083945512771606
			],
			"min":[
				-0.875,
				0.3749999701976776,
				-0.875
			],
			"type":"VEC3"
		},
		{
			"bufferView":1,
			"componentType":5126,
			"count":120,
			"type":"VEC3"
		},
		{
			"bufferView":2,
			"componentType":5126,
			"count":120,
			"type":"VEC2"
		},
		{
			"bufferView":3,
			"componentType":5123,
			"count":180,
			"type":"SCALAR"
		},
		{
			"bufferView":4,
			"componentType":5126,
			"count":217,
			"max":[
				1.4180521965026855,
				3.058720588684082,
				1.4180521965026855
			],
			"min":[
				-1.4180521965026855,
				1.3224343061447144,
				-1.4180521965026855
			],
			"type":"VEC3"
		},
		{
			"bufferView":5,
			"componentType":5126,
			"count":217,
			"type":"VEC3"
		},
		{
			"bufferView":6,
			"componentType":5126,
			"count":217,
			"type":"VEC2"
		},
		{
			"bufferView":7,
			"componentType":5123,
			"count":816,
			"type":"SCALAR"
		},
		{
			"bufferView":8,
			"componentType":5126,
			"count":24,
			"max":[
				0.35159045457839966,
				1.3749998807907104,
				0.9170015454292297
			],
			"min":[
				-0.3515903353691101,
				0.3749999701976776,
				0.8083945512771606
			],
			"type":"VEC3"
		},
		{
			"bufferView":9,
			"componentType":5126,
			"count":24,
			"type":"VEC3"
		},
		{
			"bufferView":10,
			"componentType":5126,
			"count":24,
			"type":"VEC2"
		},
		{
			"bufferView":11,
			"componentType":5123,
			"count":36,
			"type":"SCALAR"
		},
		{
			"bufferView":12,
			"componentType":5126,
			"count":405,
			"max":[
				1.0270503759384155,
				2,
				0.9238795638084412
			],
			"min":[
				-1.027050495147705,
				0,
				-1.0270503759384155
			],
			"type":"VEC3"
		},
		{
			"bufferView":13,
			"componentType":5126,
			"count":405,
			"type":"VEC3"
		},
		{
			"bufferView":14,
			"componentType":5126,
			"count":405,
			"type":"VEC2"
		},
		{
			"bufferView":15,
			"componentType":5123,
			"count":828,
			"type":"SCALAR"
		},
		{
			"bufferView":16,
			"componentType":5126,
			"count":54,
			"max":[
				0.47835445404052734,
				0.3749999701976776,
				1.25
			],
			"min":[
				-0.47835415601730347,
				0,
				0.8083945512771606
			],
			"type":"VEC3"
		},
		{
			"bufferView":17,
			"componentType":5126,
			"count":54,
			"type":"VEC3"
		},
		{
			"bufferView":18,
			"componentType":5126,
			"count":54,
			"type":"VEC2"
		},
		{
			"bufferView":19,
			"componentType":5123,
			"count":120,
			"type":"SCALAR"
		}
	],
	"bufferViews":[
		{
			"buffer":0,
			"byteLength":1440,
			"byteOffset":0,
			"target":34962
		},
		{
			"buffer":0,
			"byteLength":1440,
			"byteOffset":1440,
			"target":34962
		},
		{
			"buffer":0,
			"byteLength":960,
			"byteOffset":2880,
			"target":34962
		},
		{
			"buffer":0,
			"byteLength":360,
			"byteOffset":3840,
			"target":34963
		},
		{
			"buffer":0,
			"byteLength":2604,
			"byteOffset":4200,
			"target":34962
		},
		{
			"buffer":0,
			"byteLength":2604,
			"byteOffset":6804,
			"target":34962
		},
		{
			"buffer":0,
			"byteLength":1736,
			"byteOffset":9408,
			"target":34962
		},
		{
			"buffer":0,
			"byteLength":1632,
			"byteOffset":11144,
			"target":34963
		},
		{
			"buffer":0,
			"byteLength":288,
			"byteOffset":12776,
			"target":34962
		},
		{
			"buffer":0,
			"byteLength":288,
			"byteOffset":13064,
			"target":34962
		},
		{
			"buffer":0,
			"byteLength":192,
			"byteOffset":13352,
			"target":34962
		},
		{
			"buffer":0,
			"byteLength":72,
			"byteOffset":13544,
			"target":34963
		},
		{
			"buffer":0,
			"byteLength":4860,
			"byteOffset":13616,
			"target":34962
		},
		{
			"buffer":0,
			"byteLength":4860,
			"byteOffset":18476,
			"target":34962
		},
		{
			"buffer":0,
			"byteLength":3240,
			"byteOffset":23336,
			"target":34962
		},
		{
			"buffer":0,
			"byteLength":1656,
			"byteOffset":26576,
			"target":34963
		},
		{
			"buffer":0,
			"byteLength":648,
			"byteOffset":28232,
			"target":34962
		},
		{
			"buffer":0,
			"byteLength":648,
			"byteOffset":28880,
			"target":34962
		},
		{
			"buffer":0,
			"byteLength":432,
			"byteOffset":29528,
			"target":34962
		},
		{
			"buffer":0,
			"byteLength":240,
			"byteOffset":29960,
			"target":34963
		}
	],
	"buffers":[
		{
			"byteLength":30200,
			"uri":"Tower.bin"
		}
	]
}
